<?xml version="1.0" standalone="no"?>
<!DOCTYPE svg PUBLIC "-//W3C//DTD SVG 20010904//EN"
 "http://www.w3.org/TR/2001/REC-SVG-20010904/DTD/svg10.dtd">
<svg version="1.0" xmlns="http://www.w3.org/2000/svg"
 width="512.000000pt" height="512.000000pt" viewBox="0 0 512.000000 512.000000"
 preserveAspectRatio="xMidYMid meet">

<g transform="translate(0.000000,512.000000) scale(0.100000,-0.100000)"
fill="#000000" stroke="none">
<path d="M4030 4055 c-191 -43 -348 -131 -481 -271 -202 -215 -289 -522 -224
-799 l14 -60 -177 -279 c-97 -154 -180 -283 -183 -288 -3 -4 -42 -3 -86 3
-142 19 -316 -25 -435 -111 l-55 -39 -541 237 -542 237 0 55 c-1 88 -26 188
-72 280 -33 68 -59 102 -127 170 -134 134 -274 192 -461 192 -187 0 -326 -58
-461 -192 -70 -70 -94 -102 -127 -170 -68 -143 -86 -279 -56 -428 39 -195 174
-368 355 -455 111 -53 169 -67 286 -67 116 0 192 17 290 65 l82 40 571 -250
570 -250 0 -30 c0 -90 77 -272 152 -361 130 -154 302 -234 503 -234 157 0 288
45 406 140 162 130 249 307 249 512 l0 87 300 236 299 236 153 3 c179 4 229
16 373 86 307 149 494 433 511 775 22 413 -248 790 -651 911 -113 33 -329 43
-435 19z m315 -390 c175 -46 324 -201 372 -388 19 -74 14 -197 -11 -270 -52
-148 -170 -272 -314 -328 -85 -33 -239 -38 -329 -10 -243 74 -400 318 -365
566 29 201 186 378 382 431 64 18 195 17 265 -1z m-3582 -649 c143 -51 229
-201 198 -347 -49 -238 -338 -333 -510 -167 -111 106 -129 266 -44 394 58 89
142 133 253 133 36 0 82 -6 103 -13z m2205 -1027 c115 -56 177 -166 170 -302
-5 -115 -72 -215 -176 -268 -56 -28 -170 -38 -229 -19 -95 31 -184 120 -213
214 -44 139 21 300 149 370 99 53 194 55 299 5z"/>
</g>
</svg>
