<svg fill="none" xmlns="http://www.w3.org/2000/svg" viewBox="0 0 818 818"><g filter="url(#a)"><path d="M408.292 0C193.062 0 16.7444 165.671 0 376.193l219.594 90.636c18.601-12.715 41.094-20.122 65.267-20.122 2.182 0 4.334.058 6.456.175l97.666-141.32v-1.983c0-85.037 69.307-154.239 154.503-154.239 85.196 0 154.503 69.202 154.503 154.239s-69.307 154.268-154.503 154.268c-1.179 0-2.329-.029-3.508-.059l-139.291 99.181c.088 1.837.147 3.674.147 5.483 0 63.865-52.031 115.803-115.973 115.803-56.129 0-103.09-40.011-113.702-92.969L14.0912 520.458C62.7326 692.136 220.743 818 408.292 818 634.578 818 818 634.861 818 409 818 183.11 634.578 0 408.292 0ZM256.75 620.589l-50.322-20.763c8.903 18.547 24.35 34.061 44.838 42.577 44.279 18.43 95.337-2.537 113.792-46.777 8.932-21.405 8.991-45.026.147-66.489-8.844-21.464-25.559-38.203-46.99-47.127-21.314-8.836-44.131-8.515-64.177-.962l52.002 21.464c32.663 13.589 48.11 51.033 34.491 83.637-13.59 32.603-51.118 48.03-83.781 34.44Zm389.69-317.007c0-56.663-46.194-102.797-102.942-102.797-56.778 0-102.973 46.134-102.973 102.797 0 56.662 46.195 102.767 102.973 102.767 56.748 0 102.942-46.105 102.942-102.767Zm-180.12-.175c0-42.636 34.639-77.193 77.325-77.193 42.716 0 77.355 34.557 77.355 77.193 0 42.635-34.639 77.192-77.355 77.192-42.686 0-77.325-34.557-77.325-77.192Z" fill="#23282E"/></g><defs><filter id="a" x="0" y="0" width="818" height="818" filterUnits="userSpaceOnUse" color-interpolation-filters="sRGB"><feFlood flood-opacity="0" result="BackgroundImageFix"/><feBlend in="SourceGraphic" in2="BackgroundImageFix" result="shape"/><feColorMatrix in="SourceAlpha" values="0 0 0 0 0 0 0 0 0 0 0 0 0 0 0 0 0 0 127 0" result="hardAlpha"/><feOffset/><feGaussianBlur stdDeviation="15.5"/><feComposite in2="hardAlpha" operator="arithmetic" k2="-1" k3="1"/><feColorMatrix values="0 0 0 0 0 0 0 0 0 0 0 0 0 0 0 0 0 0 0.21 0"/><feBlend in2="shape" result="effect1_innerShadow_150_454"/></filter></defs></svg>